<svg width="24" height="24" viewBox="0 0 24 24" fill="none" xmlns="http://www.w3.org/2000/svg">
<path d="M22.753 19.1619L19.7538 19.3966L19.5216 22.396L11.8357 14.7165L15.0672 11.4824L22.753 19.1619Z" fill="#B23B11"/>
<path d="M19.6801 20.3494L19.7538 19.3967L20.7771 19.3166L14.0028 12.5479L12.9383 13.6131L19.6801 20.3494Z" fill="#FED555"/>
<path opacity="0.2" d="M15.0672 11.4824L11.8357 14.7165L15.748 18.6255C15.8855 18.487 15.9785 18.3064 16.0078 18.1069L17.7021 19.2517C18.3465 19.7178 18.6801 19.7795 19.1462 19.1351L20.5678 16.9784L15.0672 11.4824Z" fill="black"/>
<path d="M19.1498 18.0298C18.7119 18.6937 18.145 18.6632 17.6403 18.3303L15.2985 16.6831C14.7938 16.3503 15.0409 15.8433 15.4788 15.1795L16.9852 12.8956C17.4232 12.2317 18.1873 11.9634 18.6919 12.2962L20.7326 13.6423C21.2373 13.9753 21.483 14.4928 21.0451 15.1566L19.1498 18.0298Z" fill="#C9472D"/>
<path d="M19.5881 17.3653L20.6123 15.8126C20.4854 15.7203 20.3518 15.6276 20.2125 15.5357L15.9356 12.7147C15.7962 12.6228 15.6584 12.5364 15.5236 12.4561L14.4994 14.0088C14.6264 14.1011 14.76 14.1937 14.8994 14.2857L19.1762 17.1067C19.3156 17.1986 19.4533 17.2849 19.5881 17.3653Z" fill="#FED555"/>
<path opacity="0.2" d="M19.3747 15.2662C19.7003 14.8182 19.7424 14.2301 19.4903 13.743C19.7956 13.6966 20.0721 13.5559 20.2858 13.3477L18.6919 12.2962C18.1872 11.9634 17.4231 12.2317 16.9852 12.8956L15.4787 15.1795C15.0408 15.8433 14.7937 16.3503 15.2985 16.6832L16.5134 17.5378C16.5174 17.5378 16.5212 17.5381 16.5251 17.5381C16.8346 17.5381 17.1304 17.4421 17.3806 17.2603C17.8291 16.9346 18.0507 16.3882 17.9614 15.8472C18.0392 15.86 18.1182 15.8664 18.1972 15.8664C18.6616 15.8664 19.1017 15.642 19.3747 15.2662Z" fill="black"/>
<path d="M1.37174 19.1619L4.37097 19.3966L4.6032 22.396L12.289 14.7165L9.05755 11.4824L1.37174 19.1619Z" fill="#B23B11"/>
<path d="M4.4447 20.3494L4.37098 19.3967L3.34766 19.3166L10.122 12.5479L11.1865 13.6131L4.4447 20.3494Z" fill="#FED555"/>
<path opacity="0.2" d="M9.05755 11.4824L12.289 14.7165L8.37677 18.6255C8.2393 18.487 8.14627 18.3064 8.11695 18.1069L6.42264 19.2517C5.77824 19.7178 5.44469 19.7795 4.97856 19.1351L3.55695 16.9784L9.05755 11.4824Z" fill="black"/>
<path d="M4.97495 18.0298C5.41286 18.6937 5.97978 18.6632 6.48446 18.3303L8.82627 16.6831C9.33099 16.3503 9.08394 15.8433 8.64599 15.1795L7.13956 12.8956C6.70161 12.2317 5.93754 11.9634 5.43287 12.2962L3.39216 13.6423C2.88753 13.9753 2.64182 14.4928 3.07973 15.1566L4.97495 18.0298Z" fill="#C9472D"/>
<path d="M4.53667 17.3653L3.51245 15.8126C3.63941 15.7203 3.77299 15.6276 3.91229 15.5357L8.18918 12.7147C8.32858 12.6228 8.46638 12.5364 8.60122 12.4561L9.62539 14.0088C9.49838 14.1011 9.3648 14.1937 9.22541 14.2857L4.94861 17.1067C4.80917 17.1986 4.67141 17.2849 4.53667 17.3653Z" fill="#FED555"/>
<path opacity="0.2" d="M4.75013 15.2662C4.42445 14.8182 4.3824 14.2301 4.63445 13.743C4.32917 13.6966 4.05274 13.5559 3.83894 13.3477L5.43293 12.2962C5.9376 11.9634 6.70167 12.2317 7.13962 12.8956L8.64606 15.1795C9.08401 15.8433 9.33106 16.3503 8.82634 16.6832L7.61137 17.5378C7.60743 17.5378 7.60359 17.5381 7.59965 17.5381C7.29025 17.5381 6.99442 17.4421 6.74415 17.2603C6.29573 16.9346 6.07412 16.3882 6.1634 15.8472C6.08564 15.86 6.00658 15.8664 5.92762 15.8664C5.46317 15.8664 5.02301 15.642 4.75013 15.2662Z" fill="black"/>
<path d="M20.5678 9.96875C20.5678 9.59604 20.3445 9.25956 20.0011 9.11455L19.3127 8.82372L19.8777 8.3346C20.1594 8.09052 20.2677 7.70152 20.1526 7.347C20.0374 6.99247 19.7211 6.74128 19.3496 6.70956L18.605 6.64581L18.9774 6.02901C19.0708 5.88424 19.125 5.71188 19.125 5.52689C19.125 5.02553 18.7278 4.61719 18.2305 4.60001C18.2194 4.59962 18.2083 4.59948 18.1972 4.59943C18.1762 4.59943 18.1551 4.60015 18.134 4.60154C18.0769 4.60548 18.0211 4.61455 17.9672 4.62818L17.2591 4.79311L17.4206 4.09893C17.4418 4.02127 17.4531 3.93953 17.4531 3.85514C17.4531 3.34337 17.0391 2.92788 16.5275 2.92788C16.5268 2.92788 16.5261 2.92788 16.5252 2.92788C16.5198 2.92788 16.5145 2.92788 16.5091 2.92788C16.5089 2.92788 16.5086 2.92788 16.5086 2.92788C16.5082 2.92788 16.5079 2.92788 16.5075 2.92788C16.3335 2.92788 16.1712 2.98236 16.0333 3.0689L15.4064 3.44719L15.3426 2.70261C15.3108 2.33129 15.0597 2.01487 14.7052 1.89972C14.6111 1.869 14.5144 1.85436 14.4186 1.85436C14.1542 1.85436 13.8968 1.96749 13.7176 2.17452L13.2284 2.73957L12.9377 2.05101C12.7927 1.70767 12.4561 1.48438 12.0834 1.48438C11.7107 1.48438 11.3741 1.70767 11.2292 2.05101L10.9384 2.73943L10.4492 2.17447C10.2699 1.96749 10.0125 1.85426 9.74813 1.85426C9.65232 1.85426 9.55579 1.86905 9.46161 1.89962C9.10704 2.01482 8.856 2.33114 8.82413 2.70257L8.76053 3.44709L8.12069 3.06098C7.9728 2.97185 7.80686 2.92764 7.6416 2.92764C7.44969 2.92764 7.25837 2.98701 7.09646 3.10476C6.79493 3.32383 6.65376 3.70221 6.73834 4.06529L6.90782 4.79311L6.17986 4.62377C6.11006 4.6074 6.0395 4.59953 5.96966 4.59948C5.67696 4.59948 5.3963 4.73839 5.21938 4.98175C5.00026 5.28333 4.98307 5.68677 5.1757 6.00597L5.56176 6.64581L4.81728 6.70956C4.4459 6.74128 4.12954 6.99252 4.01434 7.347C3.89909 7.70152 4.00733 8.09052 4.28909 8.3346L4.85405 8.82372L4.16573 9.11455C3.82234 9.25956 3.59904 9.59604 3.59904 9.96875C3.59904 10.3416 3.82229 10.6781 4.16573 10.8231L4.85405 11.1138L4.28909 11.6031C4.00738 11.8471 3.89909 12.2361 4.01434 12.5906C4.12949 12.9451 4.44586 13.1963 4.81728 13.228L5.56176 13.2917L5.1757 13.9315C4.98307 14.2507 5.00026 14.6542 5.21938 14.9558C5.3963 15.1992 5.67696 15.3382 5.96966 15.3382C6.0395 15.3382 6.10997 15.3303 6.17986 15.3139L6.90782 15.1444L6.73834 15.8723C6.65376 16.2353 6.79493 16.6137 7.09646 16.8328C7.25837 16.9505 7.44969 17.0099 7.6416 17.0099C7.80701 17.0099 7.9728 16.9658 8.12069 16.8765L8.76053 16.4905L8.82413 17.235C8.856 17.6064 9.10709 17.9227 9.46161 18.038C9.55569 18.0686 9.65232 18.0833 9.74813 18.0833C10.0125 18.0833 10.2699 17.97 10.4492 17.763L10.9384 17.1981L11.2292 17.8865C11.3741 18.2298 11.7107 18.4532 12.0834 18.4532C12.4561 18.4532 12.7927 18.2299 12.9377 17.8865L13.2284 17.1981L13.7176 17.763C13.8968 17.97 14.1543 18.0833 14.4186 18.0833C14.5144 18.0833 14.611 18.0686 14.7052 18.038C15.0597 17.9228 15.3108 17.6064 15.3426 17.235L15.4064 16.4905L16.0461 16.8765C16.1939 16.9658 16.3599 17.0099 16.5251 17.0099C16.717 17.0099 16.9084 16.9505 17.0704 16.8328C17.372 16.6138 17.513 16.2353 17.4284 15.8723L17.259 15.1444L17.9869 15.3139C18.0568 15.3303 18.1274 15.3382 18.1972 15.3382C18.4899 15.3382 18.7705 15.1992 18.9474 14.9558C19.1665 14.6542 19.1838 14.2507 18.9911 13.9315L18.605 13.2917L19.3496 13.228C19.721 13.1963 20.0373 12.945 20.1526 12.5906C20.2677 12.2361 20.1594 11.8471 19.8777 11.6031L19.3127 11.1138L20.0011 10.8231C20.3445 10.6781 20.5678 10.3415 20.5678 9.96875Z" fill="#F9B428"/>
<path opacity="0.2" d="M10.9751 17.2852L11.0941 17.567L19.6778 8.97832L19.3962 8.85938L10.9751 17.2852Z" fill="#FFF9A9"/>
<path opacity="0.2" d="M9.36307 17.9991L20.1118 7.24476C20.04 7.08939 19.9279 6.95888 19.7895 6.86537L8.9819 17.6786C9.07594 17.8165 9.20726 17.9279 9.36307 17.9991ZM14.7134 1.90088L4.01712 12.5985C4.12162 12.9109 4.38278 13.1413 4.69944 13.21L15.3248 2.5831C15.2567 2.26611 15.0262 2.00571 14.7134 1.90088Z" fill="#FFF9A9"/>
<path opacity="0.2" d="M13.0104 2.22314L4.33858 10.8961L4.77029 11.0784L13.1927 2.65486L13.0104 2.22314Z" fill="#FFF9A9"/>
<path d="M12.0834 4.03223C8.8259 4.03223 6.18533 6.67285 6.18533 9.93037C6.18533 13.1879 8.8259 15.8285 12.0834 15.8285C15.3409 15.8285 17.9815 13.1879 17.9815 9.93037C17.9815 6.67285 15.3409 4.03223 12.0834 4.03223Z" fill="#F9B428"/>
<path d="M12.0834 3.59717C8.58557 3.59717 5.75026 6.43258 5.75026 9.93039C5.75026 13.4282 8.58557 16.2636 12.0834 16.2636C15.5812 16.2636 18.4166 13.4282 18.4166 9.93039C18.4166 6.43258 15.5812 3.59717 12.0834 3.59717ZM12.0834 15.2553C9.14256 15.2553 6.75854 12.8713 6.75854 9.93039C6.75854 6.98952 9.14256 4.60546 12.0834 4.60546C15.0243 4.60546 17.4083 6.98952 17.4083 9.93039C17.4083 12.8713 15.0243 15.2553 12.0834 15.2553Z" fill="#FED555"/>
<path fill-rule="evenodd" clip-rule="evenodd" d="M6.18619 10.4047L6.38832 9.78934L7.00368 9.58712L6.38832 9.3848L6.18619 8.76953L5.98387 9.3848L5.36856 9.58712L5.98387 9.78934L6.18619 10.4047Z" fill="white"/>
<path fill-rule="evenodd" clip-rule="evenodd" d="M17.3413 13.9569L17.5435 13.3417L18.1588 13.1394L17.5435 12.937L17.3413 12.3218L17.139 12.937L16.5238 13.1394L17.139 13.3417L17.3413 13.9569Z" fill="white"/>
<path fill-rule="evenodd" clip-rule="evenodd" d="M7.67794 5.94497L7.35701 4.96875L7.03613 5.94497L6.05952 6.26605L7.03613 6.58697L7.35701 7.5632L7.67794 6.58697L8.65421 6.26605L7.67794 5.94497Z" fill="white"/>
<path d="M14.8425 9.83709C14.8425 9.83709 15.2124 9.62382 15.1289 9.24482C15.0453 8.86566 14.5559 8.87762 14.5081 8.87762C14.4603 8.87762 13.0754 8.8419 13.0039 8.80662C13.0039 8.80662 13.6128 8.29706 13.7321 7.62179C13.8515 6.94653 13.744 6.5319 13.4456 6.44891C13.1472 6.36592 13.1472 6.28293 13.0517 6.36592C12.9562 6.44891 12.9084 6.70946 12.8964 6.82821C12.8845 6.94648 12.5741 7.8351 12.1801 8.06003C11.7863 8.2852 11.631 8.32067 11.5833 8.52198C11.5355 8.72349 10.9909 10.0903 10.4061 10.2327L10.0968 12.4084L10.4061 12.6006C10.4061 12.6006 10.9505 12.4433 11.2609 12.3604C11.5713 12.2774 11.7384 12.2774 11.9294 12.384C12.1204 12.4907 13.0634 12.7039 13.8516 12.467C14.6396 12.2299 14.8781 12.147 14.8901 11.8628C14.9021 11.5785 14.759 11.4482 14.759 11.4482C14.759 11.4482 15.0931 11.2232 14.8781 10.6783C14.8781 10.6784 15.2959 10.311 14.8425 9.83709ZM9.29117 12.7396L10.1275 12.7399V10.0934L9.81825 9.90117L8.9819 12.5475L9.29117 12.7396Z" fill="#E2901A"/>
<path d="M14.5332 9.64519C14.5332 9.64519 14.9031 9.43193 14.8196 9.05292C14.736 8.67377 14.2465 8.68572 14.1988 8.68572C14.151 8.68572 12.7661 8.65001 12.6946 8.61473C12.6946 8.61473 13.3035 8.10516 13.4228 7.4299C13.5422 6.75463 13.4347 6.34001 13.1363 6.25702C12.8379 6.17402 12.8379 6.09103 12.7424 6.17402C12.6468 6.25702 12.5991 6.51756 12.5871 6.63631C12.5752 6.75458 12.2648 7.64321 11.8708 7.86814C11.4769 8.0933 11.3217 8.12878 11.2739 8.33009C11.2262 8.53159 10.6816 9.89844 10.0968 10.0408V12.4087C10.0968 12.4087 10.6412 12.2514 10.9516 12.1685C11.262 12.0855 11.4291 12.0855 11.6201 12.1921C11.8111 12.2988 12.7541 12.512 13.5422 12.2751C14.3302 12.038 14.5688 11.9551 14.5808 11.6709C14.5928 11.3866 14.4497 11.2563 14.4497 11.2563C14.4497 11.2563 14.7838 11.0313 14.5688 10.4864C14.5688 10.4864 14.9866 10.1191 14.5332 9.64519ZM8.9819 12.5477L9.81825 12.548V9.90142H8.98253L8.9819 12.5477Z" fill="#FED555"/>
</svg>
