<svg width="56" height="56" viewBox="0 0 56 56" fill="none" xmlns="http://www.w3.org/2000/svg">
<rect x="4" y="4" width="48" height="48" rx="24" fill="#475467"/>
<path d="M17 21.2L16.3753 20.4191C16.1381 20.6089 16 20.8962 16 21.2H17ZM28 37L27.3753 37.7809L28 38.2806L28.6247 37.7809L28 37ZM17 37H16C16 37.3844 16.2203 37.7348 16.5668 37.9013C16.9133 38.0678 17.3245 38.021 17.6247 37.7809L17 37ZM39 21.2H40C40 20.8962 39.8619 20.6089 39.6247 20.4191L39 21.2ZM39 37L38.3753 37.7809C38.6755 38.021 39.0867 38.0678 39.4332 37.9013C39.7797 37.7348 40 37.3844 40 37H39ZM27 21.2V37H29V21.2H27ZM18 37V21.2H16V37H18ZM17 21.2C17.6247 21.9809 17.6245 21.981 17.6244 21.9811C17.6243 21.9812 17.6242 21.9813 17.6241 21.9814C17.6239 21.9815 17.6238 21.9816 17.6237 21.9817C17.6235 21.9818 17.6235 21.9818 17.6237 21.9817C17.624 21.9814 17.625 21.9807 17.6266 21.9794C17.6298 21.9769 17.6355 21.9724 17.6437 21.966C17.6602 21.9533 17.6864 21.9332 17.7218 21.9067C17.7927 21.8538 17.8999 21.7758 18.0382 21.681C18.3155 21.4908 18.7132 21.2363 19.1893 20.9824C20.1643 20.4623 21.3665 20 22.5 20V18C20.8835 18 19.3357 18.6377 18.2482 19.2176C17.693 19.5137 17.2313 19.8092 16.9071 20.0315C16.7446 20.143 16.6155 20.2368 16.5252 20.3042C16.4801 20.3379 16.4446 20.3651 16.4194 20.3846C16.4068 20.3943 16.3968 20.4022 16.3894 20.408C16.3857 20.4109 16.3827 20.4133 16.3803 20.4151C16.3791 20.4161 16.3781 20.4169 16.3773 20.4175C16.3769 20.4179 16.3765 20.4182 16.3762 20.4184C16.376 20.4186 16.3758 20.4187 16.3757 20.4188C16.3755 20.419 16.3753 20.4191 17 21.2ZM22.5 20C23.6335 20 24.8356 20.4623 25.8107 20.9824C26.2868 21.2363 26.6845 21.4908 26.9618 21.681C27.1001 21.7758 27.2073 21.8538 27.2782 21.9067C27.3136 21.9332 27.3398 21.9533 27.3563 21.966C27.3645 21.9724 27.3702 21.9769 27.3734 21.9794C27.375 21.9807 27.376 21.9814 27.3763 21.9817C27.3765 21.9818 27.3765 21.9818 27.3763 21.9817C27.3762 21.9816 27.3761 21.9815 27.3759 21.9814C27.3758 21.9813 27.3757 21.9812 27.3756 21.9811C27.3755 21.981 27.3753 21.9809 28 21.2C28.6247 20.4191 28.6245 20.419 28.6243 20.4188C28.6242 20.4187 28.624 20.4186 28.6238 20.4184C28.6235 20.4182 28.6231 20.4179 28.6227 20.4175C28.6219 20.4169 28.6209 20.4161 28.6197 20.4151C28.6173 20.4133 28.6143 20.4109 28.6106 20.408C28.6032 20.4022 28.5932 20.3943 28.5806 20.3846C28.5554 20.3651 28.5199 20.3379 28.4748 20.3042C28.3845 20.2368 28.2554 20.143 28.0929 20.0315C27.7687 19.8092 27.307 19.5137 26.7518 19.2176C25.6643 18.6377 24.1165 18 22.5 18V20ZM28 37C28.6247 36.2191 28.6245 36.219 28.6243 36.2188C28.6242 36.2187 28.624 36.2186 28.6238 36.2184C28.6235 36.2182 28.6231 36.2179 28.6227 36.2175C28.6219 36.2169 28.6209 36.2161 28.6197 36.2151C28.6173 36.2133 28.6143 36.2109 28.6106 36.208C28.6032 36.2022 28.5932 36.1943 28.5806 36.1846C28.5554 36.1651 28.5199 36.1379 28.4748 36.1042C28.3845 36.0368 28.2554 35.943 28.0929 35.8315C27.7687 35.6092 27.307 35.3137 26.7518 35.0176C25.6643 34.4377 24.1165 33.8 22.5 33.8V35.8C23.6335 35.8 24.8357 36.2623 25.8107 36.7824C26.2868 37.0363 26.6845 37.2908 26.9618 37.481C27.1001 37.5758 27.2073 37.6538 27.2782 37.7067C27.3136 37.7332 27.3398 37.7533 27.3563 37.766C27.3645 37.7724 27.3702 37.7769 27.3734 37.7794C27.375 37.7807 27.376 37.7814 27.3763 37.7817C27.3765 37.7818 27.3765 37.7818 27.3763 37.7817C27.3762 37.7816 27.3761 37.7815 27.3759 37.7814C27.3758 37.7813 27.3757 37.7812 27.3756 37.7811C27.3755 37.781 27.3753 37.7809 28 37ZM22.5 33.8C20.8835 33.8 19.3357 34.4377 18.2482 35.0176C17.693 35.3137 17.2313 35.6092 16.9071 35.8315C16.7446 35.943 16.6155 36.0368 16.5252 36.1042C16.4801 36.1379 16.4446 36.1651 16.4194 36.1846C16.4068 36.1943 16.3968 36.2022 16.3894 36.208C16.3857 36.2109 16.3827 36.2133 16.3803 36.2151C16.3791 36.2161 16.3781 36.2169 16.3773 36.2175C16.3769 36.2179 16.3765 36.2182 16.3762 36.2184C16.376 36.2186 16.3758 36.2187 16.3757 36.2188C16.3755 36.219 16.3753 36.2191 17 37C17.6247 37.7809 17.6245 37.781 17.6244 37.7811C17.6243 37.7812 17.6242 37.7813 17.6241 37.7814C17.6239 37.7815 17.6238 37.7816 17.6237 37.7817C17.6235 37.7818 17.6235 37.7818 17.6237 37.7817C17.624 37.7814 17.625 37.7807 17.6266 37.7794C17.6298 37.7769 17.6355 37.7724 17.6437 37.766C17.6602 37.7533 17.6864 37.7332 17.7218 37.7067C17.7927 37.6538 17.8999 37.5758 18.0382 37.481C18.3155 37.2908 18.7132 37.0363 19.1893 36.7824C20.1643 36.2623 21.3665 35.8 22.5 35.8V33.8ZM38 21.2V37H40V21.2H38ZM28 21.2C28.6247 21.9809 28.6245 21.981 28.6244 21.9811C28.6243 21.9812 28.6242 21.9813 28.6241 21.9814C28.6239 21.9815 28.6238 21.9816 28.6237 21.9817C28.6235 21.9818 28.6235 21.9818 28.6237 21.9817C28.624 21.9814 28.625 21.9807 28.6266 21.9794C28.6298 21.9769 28.6355 21.9724 28.6437 21.966C28.6602 21.9533 28.6864 21.9332 28.7218 21.9067C28.7927 21.8538 28.8999 21.7758 29.0382 21.681C29.3155 21.4908 29.7132 21.2363 30.1893 20.9824C31.1643 20.4623 32.3665 20 33.5 20V18C31.8835 18 30.3357 18.6377 29.2482 19.2176C28.693 19.5137 28.2313 19.8092 27.9071 20.0315C27.7446 20.143 27.6155 20.2368 27.5252 20.3042C27.4801 20.3379 27.4446 20.3651 27.4194 20.3846C27.4068 20.3943 27.3968 20.4022 27.3894 20.408C27.3857 20.4109 27.3827 20.4133 27.3803 20.4151C27.3791 20.4161 27.3781 20.4169 27.3773 20.4175C27.3769 20.4179 27.3765 20.4182 27.3762 20.4184C27.376 20.4186 27.3758 20.4187 27.3757 20.4188C27.3755 20.419 27.3753 20.4191 28 21.2ZM33.5 20C34.6335 20 35.8356 20.4623 36.8107 20.9824C37.2868 21.2363 37.6845 21.4908 37.9618 21.681C38.1001 21.7758 38.2073 21.8538 38.2782 21.9067C38.3136 21.9332 38.3398 21.9533 38.3563 21.966C38.3645 21.9724 38.3702 21.9769 38.3734 21.9794C38.375 21.9807 38.376 21.9814 38.3763 21.9817C38.3765 21.9818 38.3765 21.9818 38.3763 21.9817C38.3762 21.9816 38.3761 21.9815 38.3759 21.9814C38.3758 21.9813 38.3757 21.9812 38.3756 21.9811C38.3755 21.981 38.3753 21.9809 39 21.2C39.6247 20.4191 39.6245 20.419 39.6243 20.4188C39.6242 20.4187 39.624 20.4186 39.6238 20.4184C39.6235 20.4182 39.6231 20.4179 39.6227 20.4175C39.6219 20.4169 39.6209 20.4161 39.6197 20.4151C39.6173 20.4133 39.6143 20.4109 39.6106 20.408C39.6032 20.4022 39.5932 20.3943 39.5806 20.3846C39.5554 20.3651 39.5199 20.3379 39.4748 20.3042C39.3845 20.2368 39.2554 20.143 39.0929 20.0315C38.7687 19.8092 38.307 19.5137 37.7518 19.2176C36.6644 18.6377 35.1165 18 33.5 18V20ZM39 37C39.6247 36.2191 39.6245 36.219 39.6243 36.2188C39.6242 36.2187 39.624 36.2186 39.6238 36.2184C39.6235 36.2182 39.6231 36.2179 39.6227 36.2175C39.6219 36.2169 39.6209 36.2161 39.6197 36.2151C39.6173 36.2133 39.6143 36.2109 39.6106 36.208C39.6032 36.2022 39.5932 36.1943 39.5806 36.1846C39.5554 36.1651 39.5199 36.1379 39.4748 36.1042C39.3845 36.0368 39.2554 35.943 39.0929 35.8315C38.7687 35.6092 38.307 35.3137 37.7518 35.0176C36.6644 34.4377 35.1165 33.8 33.5 33.8V35.8C34.6335 35.8 35.8356 36.2623 36.8107 36.7824C37.2868 37.0363 37.6845 37.2908 37.9618 37.481C38.1001 37.5758 38.2073 37.6538 38.2782 37.7067C38.3136 37.7332 38.3398 37.7533 38.3563 37.766C38.3645 37.7724 38.3702 37.7769 38.3734 37.7794C38.375 37.7807 38.376 37.7814 38.3763 37.7817C38.3765 37.7818 38.3765 37.7818 38.3763 37.7817C38.3762 37.7816 38.3761 37.7815 38.3759 37.7814C38.3758 37.7813 38.3757 37.7812 38.3756 37.7811C38.3755 37.781 38.3753 37.7809 39 37ZM33.5 33.8C31.8835 33.8 30.3357 34.4377 29.2482 35.0176C28.693 35.3137 28.2313 35.6092 27.9071 35.8315C27.7446 35.943 27.6155 36.0368 27.5252 36.1042C27.4801 36.1379 27.4446 36.1651 27.4194 36.1846C27.4068 36.1943 27.3968 36.2022 27.3894 36.208C27.3857 36.2109 27.3827 36.2133 27.3803 36.2151C27.3791 36.2161 27.3781 36.2169 27.3773 36.2175C27.3769 36.2179 27.3765 36.2182 27.3762 36.2184C27.376 36.2186 27.3758 36.2187 27.3757 36.2188C27.3755 36.219 27.3753 36.2191 28 37C28.6247 37.7809 28.6245 37.781 28.6244 37.7811C28.6243 37.7812 28.6242 37.7813 28.6241 37.7814C28.6239 37.7815 28.6238 37.7816 28.6237 37.7817C28.6235 37.7818 28.6235 37.7818 28.6237 37.7817C28.624 37.7814 28.625 37.7807 28.6266 37.7794C28.6298 37.7769 28.6355 37.7724 28.6437 37.766C28.6602 37.7533 28.6864 37.7332 28.7218 37.7067C28.7927 37.6538 28.8999 37.5758 29.0382 37.481C29.3155 37.2908 29.7132 37.0363 30.1893 36.7824C31.1643 36.2623 32.3665 35.8 33.5 35.8V33.8Z" fill="#FCFCFC"/>
<rect x="4" y="4" width="48" height="48" rx="24" stroke="#344054" stroke-width="8"/>
</svg>
