<svg width="25" height="24" viewBox="0 0 25 24" fill="none" xmlns="http://www.w3.org/2000/svg">
<path d="M13.4544 0.794967C13.2519 0.974967 11.6769 4.10059 11.6769 4.10059L10.505 8.82747L15.065 8.40934C15.065 8.40934 18.8581 1.35559 18.935 1.19247C19.0719 0.896217 19.145 0.774342 18.6219 0.774342C18.0988 0.772467 13.6438 0.626217 13.4544 0.794967Z" fill="#176CC7"/>
<path d="M15.815 8.1169C15.5881 7.99502 8.90563 7.89002 8.74813 8.1169C8.60563 8.32315 8.62625 9.26627 8.69563 9.38815C8.765 9.51002 11.0113 10.5544 11.0113 10.5544L11.0094 10.935C11.0094 10.935 11.1331 11.2331 12.3856 11.2331C13.6381 11.2331 13.7675 10.98 13.7675 10.98L13.7788 10.5956C13.7788 10.5956 15.7456 9.61315 15.8488 9.5269C15.9538 9.43877 16.0419 8.23877 15.815 8.1169ZM13.7563 9.67877C13.7563 9.67877 13.7506 9.41627 13.6213 9.35065C13.4919 9.28502 11.4088 9.29627 11.2325 9.30565C11.0563 9.31502 11.0563 9.63002 11.0563 9.63002L9.63125 8.93627V8.79752L14.9375 8.83502L14.9469 8.99252L13.7563 9.67877Z" fill="#FCC417"/>
<path d="M11.6113 9.59436C11.435 9.59436 11.3338 9.77811 11.3338 10.095C11.3338 10.3912 11.435 10.6406 11.6581 10.6219C11.8419 10.6069 11.9056 10.3256 11.8888 10.0762C11.8719 9.77999 11.8344 9.59436 11.6113 9.59436Z" fill="#FDFFFF"/>
<path d="M5.93375 17.01C5.93375 21.5025 9.995 23.5031 12.695 23.4075C15.6725 23.3006 19.2387 20.9793 19.0231 16.6931C18.8187 12.6318 15.4025 10.7062 12.4437 10.7268C9.005 10.7512 5.93375 13.0856 5.93375 17.01Z" fill="#FCC417"/>
<path d="M12.5994 22.6257C12.5525 22.6257 12.5037 22.6257 12.4569 22.6238C11.0506 22.5769 9.66124 21.9844 8.64499 21C7.55749 19.9463 6.96124 18.5213 6.96874 16.9894C6.98562 13.2488 10.2556 11.5144 12.4737 11.5144H12.4925C15.4981 11.5275 17.9656 13.8638 18.035 17.0307C18.065 18.4407 17.4875 19.92 16.355 21.0338C15.2975 22.0707 13.895 22.6257 12.5994 22.6257ZM12.47 12.1369C10.4806 12.1369 7.53874 13.7644 7.53124 16.9894C7.52562 19.4007 9.39312 21.8794 12.5037 21.9844C13.6887 22.0219 14.9094 21.5682 15.8956 20.5988C16.9194 19.5919 17.495 18.2944 17.4744 17.0382C17.4294 14.3138 15.2019 12.1463 12.4981 12.135C12.4906 12.135 12.4756 12.1369 12.47 12.1369Z" fill="#FA912C"/>
<path d="M11.3412 11.3644C11.2119 11.1863 9.74562 11.22 8.35999 12.5738C7.02312 13.8807 6.87874 15.1125 7.13562 15.1838C7.42624 15.2644 7.78062 13.9594 9.00499 12.8625C10.13 11.8575 11.6 11.7188 11.3412 11.3644ZM17.0131 16.215C16.5612 16.2788 17.03 17.6325 15.9819 19.1475C15.0725 20.4619 14.0412 20.9382 14.1612 21.2269C14.3225 21.6132 15.9744 20.6513 16.7394 19.0838C17.4331 17.6644 17.3506 16.1663 17.0131 16.215Z" fill="#FEFFFA"/>
<path d="M10.9719 14.4412C10.8744 14.5856 10.9625 15.8512 11.0206 15.9075C11.1331 16.02 11.9881 15.6168 11.9881 15.6168L11.9562 19.0012C11.9562 19.0012 11.3281 18.9937 11.2625 19.0181C11.1331 19.0668 11.15 20.3718 11.2456 20.4356C11.3412 20.4993 13.9044 20.5331 14.0019 20.4037C14.0994 20.2743 14.075 19.1325 14.03 19.08C13.9494 18.9825 13.3362 19.0218 13.3362 19.0218C13.3362 19.0218 13.3887 14.0381 13.3719 13.8787C13.355 13.7193 13.1787 13.62 12.9687 13.6687C12.7587 13.7175 11.0337 14.3475 10.9719 14.4412Z" fill="#FA912C"/>
<path d="M5.28313 0.697456C5.16501 0.806206 9.68188 8.84996 9.68188 8.84996C9.68188 8.84996 10.4394 8.94746 12.1306 8.96246C13.8219 8.97746 14.66 8.86496 14.66 8.86496C14.66 8.86496 11.1481 0.778081 10.9381 0.697456C10.835 0.656206 9.44376 0.641206 8.08438 0.626206C6.72313 0.609331 5.39563 0.592456 5.28313 0.697456Z" fill="#2E9DF4"/>
</svg>
