<svg width="56" height="56" viewBox="0 0 56 56" fill="none" xmlns="http://www.w3.org/2000/svg">
<rect x="4" y="4" width="48" height="48" rx="24" fill="#475467"/>
<path d="M18 20C18 19.4477 18.4477 19 19 19H37C37.5523 19 38 19.4477 38 20V24H18V20Z" stroke="#FCFCFC" stroke-width="2" stroke-linecap="round" stroke-linejoin="round"/>
<path d="M19 24H37V36C37 36.5523 36.5523 37 36 37H20C19.4477 37 19 36.5523 19 36V24Z" stroke="#FCFCFC" stroke-width="2" stroke-linecap="round" stroke-linejoin="round"/>
<path d="M26 28C25.4477 28 25 28.4477 25 29C25 29.5523 25.4477 30 26 30V28ZM30 30C30.5523 30 31 29.5523 31 29C31 28.4477 30.5523 28 30 28V30ZM26 30H30V28H26V30Z" fill="#FCFCFC"/>
<rect x="4" y="4" width="48" height="48" rx="24" stroke="#344054" stroke-width="8"/>
</svg>
