<svg width="112" height="111" viewBox="0 0 112 111" fill="none" xmlns="http://www.w3.org/2000/svg">
<path fill-rule="evenodd" clip-rule="evenodd" d="M56 23.1875L70.2188 31.2812L84.4375 39.5938V56V72.4062L70.2188 80.7188L56 88.8125L41.7812 80.7188L27.5625 72.4062V56V39.5938L41.7812 31.2812L56 23.1875Z" fill="#64A9DC"/>
<path fill-rule="evenodd" clip-rule="evenodd" d="M56 88.8125L41.7812 80.7188L27.5625 72.4062V56V39.5938L41.7812 31.2812L56 23.1875V88.8125Z" fill="#5097D3"/>
<path fill-rule="evenodd" clip-rule="evenodd" d="M56 28.6562L67.8125 35.4375L79.625 42.2188V56V69.7812L67.8125 76.5625L56 83.3438L44.1875 76.5625L32.375 69.7812V56V42.2188L44.1875 35.4375L56 28.6562Z" fill="#64A9DC"/>
<path fill-rule="evenodd" clip-rule="evenodd" d="M59.9375 50.5313L59.7188 50.75C59.2813 51.1875 58.625 51.625 58.1875 52.0625C57.75 52.7188 57.0938 53.1563 56.6563 53.5938L56.4375 53.8125L52.5 57.3125C52.2813 57.5313 52.0625 57.75 51.8438 57.75L50.3125 59.2813C50.0938 59.5 50.0938 59.5 49.875 59.7188C49.2188 60.1563 49 59.9375 49.2188 61.9063L49 62.3438V64.3125L48.7813 64.75V65.4063V65.625H48.5625V65.4063V65.1875L47.4688 61.6875L46.8125 59.7188L46.1563 57.75L46.375 57.5313H46.5938L47.9063 56.6563V56.4375C48.7813 56 49.6563 55.3438 50.5313 54.9063C50.9688 54.6875 51.4063 54.4688 51.8438 54.0313C52.2813 53.8125 52.7188 53.5938 53.1563 53.375V53.1563L54.6875 52.2813C55.5625 51.8438 56.4375 51.1875 57.3125 50.75C58.1875 50.0938 59.0625 49.4375 59.9375 49L61.4688 48.125V47.9063C61.9063 47.9063 62.3438 47.4688 62.7813 47.6875C62.7813 48.125 62.5625 48.3438 62.125 48.5625L59.9375 50.5313ZM65.625 43.3125H65.4063L64.5313 43.75H64.3125L59.9375 45.5L58.8438 45.9375L54.25 47.6875L53.375 47.9063L53.1563 48.125L48.7813 49.875H48.5625L47.6875 50.0938V50.3125L43.0938 51.8438V52.0625L38.5 53.5938V53.8125C37.8438 54.0313 36.5313 54.6875 37.1875 55.5625C37.4063 55.5625 37.1875 55.5625 37.1875 55.5625C37.625 55.7813 37.625 56 38.0625 56H38.2813L39.375 56.4375H39.5938L40.6875 56.875L42.4375 57.3125L42.6563 57.5313L43.75 57.75H43.9688C44.1875 57.9688 44.4063 57.9688 44.625 57.9688C45.0625 58.1875 45.0625 58.1875 45.0625 58.625H45.2813V58.8438L46.375 62.5625L47.6875 66.0625V66.2813V66.5C47.9063 66.9375 47.9063 67.375 48.3438 67.375C48.7813 67.5938 49.2188 67.5938 49.6563 67.375C49.875 67.1563 50.9688 66.0625 51.1875 65.8438L51.4063 65.625L53.5938 63.4375C53.5938 63.4375 53.8125 63.2188 53.8125 63.6563C54.25 63.6563 54.4688 64.0938 54.9063 64.3125L55.125 64.5313C55.5625 64.75 56.2188 65.4063 56.875 65.8438C57.5313 66.2813 57.9688 66.7188 58.625 67.1563C59.2813 67.5938 59.9375 68.0313 60.5938 68.4688V68.6875L61.0313 68.9063C62.125 69.3438 62.7813 69.125 63.2188 68.25C63.4375 67.8125 63.875 66.0625 63.875 65.625V65.4063L64.3125 63L64.5313 62.7813L64.9688 60.375V60.1563L65.625 57.75V57.5313L66.0625 55.125L66.2813 54.9063L66.7188 52.5V52.2813L67.1563 49.875L67.375 49.6563L67.8125 47.25V47.0313L68.0313 45.9375C68.25 45.2813 68.25 44.8438 68.25 44.1875C68.25 43.5313 68.0313 43.3125 67.5938 43.0938L67.375 42.875C66.5 42.6563 66.2813 43.0938 65.625 43.3125Z" fill="#FEFEFF"/>
</svg>
