<svg width="56" height="56" viewBox="0 0 56 56" fill="none" xmlns="http://www.w3.org/2000/svg">
<rect x="4" y="4" width="48" height="48" rx="24" fill="#475467"/>
<path d="M17 20.5C17 20.2239 17.2176 20 17.4938 20C20.2725 20 33.9967 20 38.5035 20C38.7796 20 39 20.2239 39 20.5V31.5C39 31.7761 38.7796 32 38.5035 32C33.9967 32 20.2725 32 17.4938 32C17.2176 32 17 31.7761 17 31.5V20.5Z" stroke="#FCFCFC" stroke-width="2"/>
<path d="M28 32V36" stroke="#FCFCFC" stroke-width="2" stroke-linecap="round"/>
<path d="M31.6189 37.9245C32.1295 38.135 32.714 37.8917 32.9245 37.3811C33.135 36.8705 32.8917 36.286 32.3811 36.0755L31.6189 37.9245ZM23.6189 36.0755C23.1083 36.286 22.865 36.8705 23.0755 37.3811C23.286 37.8917 23.8705 38.135 24.3811 37.9245L23.6189 36.0755ZM32 37C32.3811 36.0755 32.381 36.0754 32.3809 36.0754C32.3808 36.0754 32.3807 36.0753 32.3806 36.0753C32.3804 36.0752 32.3801 36.0751 32.3799 36.075C32.3793 36.0747 32.3786 36.0744 32.3777 36.0741C32.376 36.0734 32.3736 36.0724 32.3707 36.0712C32.3649 36.0689 32.3569 36.0656 32.3466 36.0614C32.326 36.0531 32.2966 36.0414 32.2593 36.0266C32.1845 35.9972 32.0776 35.9558 31.945 35.9065C31.6804 35.8081 31.3104 35.6768 30.8875 35.5452C30.0718 35.2913 28.9487 35 28 35V37C28.6256 37 29.5025 37.2087 30.2932 37.4548C30.6735 37.5732 31.0083 37.6919 31.2477 37.781C31.3671 37.8254 31.462 37.8622 31.5261 37.8874C31.5582 37.9 31.5824 37.9098 31.5982 37.9161C31.606 37.9193 31.6118 37.9216 31.6152 37.923C31.617 37.9238 31.6182 37.9242 31.6188 37.9245C31.6191 37.9246 31.6192 37.9247 31.6193 37.9247C31.6193 37.9247 31.6192 37.9247 31.6192 37.9246C31.6191 37.9246 31.6191 37.9246 31.6191 37.9246C31.619 37.9246 31.6189 37.9245 32 37ZM28 35C27.0513 35 25.9282 35.2913 25.1125 35.5452C24.6896 35.6768 24.3196 35.8081 24.055 35.9065C23.9224 35.9558 23.8155 35.9972 23.7407 36.0266C23.7034 36.0414 23.674 36.0531 23.6534 36.0614C23.6431 36.0656 23.6351 36.0689 23.6293 36.0712C23.6264 36.0724 23.624 36.0734 23.6223 36.0741C23.6214 36.0744 23.6207 36.0747 23.6201 36.075C23.6199 36.0751 23.6196 36.0752 23.6194 36.0753C23.6193 36.0753 23.6192 36.0754 23.6191 36.0754C23.619 36.0754 23.6189 36.0755 24 37C24.3811 37.9245 24.381 37.9246 24.3809 37.9246C24.3809 37.9246 24.3809 37.9246 24.3808 37.9246C24.3808 37.9247 24.3807 37.9247 24.3807 37.9247C24.3808 37.9247 24.3809 37.9246 24.3812 37.9245C24.3818 37.9242 24.383 37.9238 24.3848 37.923C24.3882 37.9216 24.394 37.9193 24.4018 37.9161C24.4176 37.9098 24.4418 37.9 24.4739 37.8874C24.538 37.8622 24.6329 37.8254 24.7523 37.781C24.9917 37.6919 25.3265 37.5732 25.7068 37.4548C26.4975 37.2087 27.3744 37 28 37V35Z" fill="#FCFCFC"/>
<rect x="4" y="4" width="48" height="48" rx="24" stroke="#344054" stroke-width="8"/>
</svg>
