<svg width="32" height="32" viewBox="0 0 32 32" fill="none" xmlns="http://www.w3.org/2000/svg">
<path d="M0 10C0 4.47715 4.47715 0 10 0H22C27.5228 0 32 4.47715 32 10V22C32 27.5228 27.5228 32 22 32H10C4.47715 32 0 27.5228 0 22V10Z" fill="url(#paint0_linear_878_55391)"/>
<path d="M6.83337 10.3333L6.20868 9.55246C5.97146 9.74224 5.83337 10.0295 5.83337 10.3333H6.83337ZM16 23.5L15.3753 24.2809L16 24.7806L16.6247 24.2809L16 23.5ZM6.83337 23.5H5.83337C5.83337 23.8844 6.05372 24.2348 6.40019 24.4013C6.74665 24.5678 7.1579 24.521 7.45807 24.2809L6.83337 23.5ZM25.1667 10.3333H26.1667C26.1667 10.0295 26.0286 9.74224 25.7914 9.55246L25.1667 10.3333ZM25.1667 23.5L24.542 24.2809C24.8422 24.521 25.2534 24.5678 25.5999 24.4013C25.9464 24.2348 26.1667 23.8844 26.1667 23.5H25.1667ZM15 10.3333V23.5H17V10.3333H15ZM7.83337 23.5V10.3333H5.83337V23.5H7.83337ZM6.83337 10.3333C7.45807 11.1142 7.45789 11.1143 7.45772 11.1145C7.45768 11.1145 7.45752 11.1146 7.45743 11.1147C7.45725 11.1149 7.4571 11.115 7.45699 11.1151C7.45677 11.1152 7.45668 11.1153 7.45673 11.1153C7.45682 11.1152 7.45745 11.1147 7.45861 11.1138C7.46093 11.112 7.46537 11.1085 7.47184 11.1035C7.4848 11.0934 7.50591 11.0773 7.53461 11.0558C7.59206 11.0129 7.67959 10.9492 7.79278 10.8716C8.02001 10.7158 8.34609 10.5071 8.73625 10.299C9.53939 9.87068 10.5124 9.5 11.4167 9.5V7.5C10.0294 7.5 8.71069 8.04599 7.79508 8.53431C7.32587 8.78456 6.9358 9.03421 6.66173 9.22215C6.52427 9.3164 6.41485 9.39592 6.33803 9.45328C6.29959 9.48198 6.26922 9.5052 6.2475 9.52202C6.23663 9.53043 6.22792 9.53725 6.22143 9.54236C6.21818 9.54492 6.21549 9.54705 6.21336 9.54873C6.2123 9.54958 6.21138 9.55031 6.21059 9.55094C6.2102 9.55125 6.20985 9.55153 6.20953 9.55178C6.20937 9.55191 6.20916 9.55208 6.20908 9.55215C6.20887 9.55231 6.20868 9.55246 6.83337 10.3333ZM11.4167 9.5C12.321 9.5 13.294 9.87068 14.0972 10.299C14.4873 10.5071 14.8134 10.7158 15.0406 10.8716C15.1538 10.9492 15.2413 11.0129 15.2988 11.0558C15.3275 11.0773 15.3486 11.0934 15.3616 11.1035C15.368 11.1085 15.3725 11.112 15.3748 11.1138C15.376 11.1147 15.3766 11.1152 15.3767 11.1153C15.3767 11.1153 15.3766 11.1152 15.3764 11.1151C15.3763 11.115 15.3762 11.1149 15.376 11.1147C15.3759 11.1146 15.3757 11.1145 15.3757 11.1145C15.3755 11.1143 15.3753 11.1142 16 10.3333C16.6247 9.55246 16.6245 9.55231 16.6243 9.55215C16.6243 9.55208 16.624 9.55191 16.6239 9.55178C16.6236 9.55153 16.6232 9.55125 16.6228 9.55094C16.622 9.55031 16.6211 9.54958 16.6201 9.54873C16.6179 9.54705 16.6152 9.54492 16.612 9.54236C16.6055 9.53725 16.5968 9.53043 16.5859 9.52202C16.5642 9.5052 16.5338 9.48198 16.4954 9.45328C16.4186 9.39592 16.3091 9.3164 16.1717 9.22215C15.8976 9.03421 15.5075 8.78456 15.0383 8.53431C14.1227 8.04599 12.8041 7.5 11.4167 7.5V9.5ZM16 23.5C16.6247 22.7191 16.6245 22.719 16.6243 22.7188C16.6243 22.7187 16.624 22.7186 16.6239 22.7185C16.6236 22.7182 16.6232 22.7179 16.6228 22.7176C16.622 22.717 16.6211 22.7162 16.6201 22.7154C16.6179 22.7137 16.6152 22.7116 16.612 22.709C16.6055 22.7039 16.5968 22.6971 16.5859 22.6887C16.5642 22.6719 16.5338 22.6486 16.4954 22.6199C16.4186 22.5626 16.3091 22.4831 16.1717 22.3888C15.8976 22.2009 15.5075 21.9512 15.0383 21.701C14.1227 21.2127 12.8041 20.6667 11.4167 20.6667V22.6667C12.321 22.6667 13.294 23.0373 14.0972 23.4657C14.4873 23.6738 14.8134 23.8825 15.0406 24.0383C15.1538 24.1159 15.2414 24.1796 15.2988 24.2225C15.3275 24.2439 15.3486 24.2601 15.3616 24.2701C15.368 24.2751 15.3725 24.2786 15.3748 24.2805C15.376 24.2814 15.3766 24.2819 15.3767 24.2819C15.3767 24.282 15.3766 24.2819 15.3764 24.2817C15.3763 24.2816 15.3762 24.2815 15.376 24.2814C15.3759 24.2813 15.3757 24.2812 15.3757 24.2811C15.3755 24.281 15.3753 24.2809 16 23.5ZM11.4167 20.6667C10.0294 20.6667 8.71069 21.2127 7.79508 21.701C7.32587 21.9512 6.9358 22.2009 6.66173 22.3888C6.52427 22.4831 6.41485 22.5626 6.33803 22.6199C6.29959 22.6486 6.26922 22.6719 6.2475 22.6887C6.23663 22.6971 6.22792 22.7039 6.22143 22.709C6.21818 22.7116 6.21549 22.7137 6.21336 22.7154C6.2123 22.7162 6.21138 22.717 6.21059 22.7176C6.2102 22.7179 6.20985 22.7182 6.20953 22.7185C6.20937 22.7186 6.20916 22.7187 6.20908 22.7188C6.20887 22.719 6.20868 22.7191 6.83337 23.5C7.45807 24.2809 7.45789 24.281 7.45772 24.2811C7.45768 24.2812 7.45752 24.2813 7.45743 24.2814C7.45725 24.2815 7.4571 24.2816 7.45699 24.2817C7.45677 24.2819 7.45668 24.282 7.45673 24.2819C7.45682 24.2819 7.45745 24.2814 7.45861 24.2805C7.46093 24.2786 7.46537 24.2751 7.47184 24.2701C7.4848 24.2601 7.50591 24.2439 7.53461 24.2225C7.59206 24.1796 7.67959 24.1159 7.79278 24.0383C8.02001 23.8825 8.34609 23.6738 8.73625 23.4657C9.53939 23.0373 10.5124 22.6667 11.4167 22.6667V20.6667ZM24.1667 10.3333V23.5H26.1667V10.3333H24.1667ZM16 10.3333C16.6247 11.1142 16.6246 11.1143 16.6244 11.1145C16.6243 11.1145 16.6242 11.1146 16.6241 11.1147C16.6239 11.1149 16.6238 11.115 16.6237 11.1151C16.6234 11.1152 16.6233 11.1153 16.6234 11.1153C16.6235 11.1152 16.6241 11.1147 16.6253 11.1138C16.6276 11.112 16.632 11.1085 16.6385 11.1035C16.6515 11.0934 16.6726 11.0773 16.7013 11.0558C16.7587 11.0129 16.8463 10.9492 16.9594 10.8716C17.1867 10.7158 17.5128 10.5071 17.9029 10.299C18.7061 9.87068 19.6791 9.5 20.5834 9.5V7.5C19.196 7.5 17.8774 8.04599 16.9617 8.53431C16.4925 8.78456 16.1025 9.03421 15.8284 9.22215C15.6909 9.3164 15.5815 9.39592 15.5047 9.45328C15.4663 9.48198 15.4359 9.5052 15.4142 9.52202C15.4033 9.53043 15.3946 9.53725 15.3881 9.54236C15.3848 9.54492 15.3822 9.54705 15.38 9.54873C15.379 9.54958 15.378 9.55031 15.3773 9.55094C15.3769 9.55125 15.3765 9.55153 15.3762 9.55178C15.376 9.55191 15.3758 9.55208 15.3757 9.55215C15.3755 9.55231 15.3753 9.55246 16 10.3333ZM20.5834 9.5C21.4877 9.5 22.4607 9.87068 23.2638 10.299C23.654 10.5071 23.9801 10.7158 24.2073 10.8716C24.3205 10.9492 24.408 11.0129 24.4655 11.0558C24.4942 11.0773 24.5153 11.0934 24.5282 11.1035C24.5347 11.1085 24.5391 11.112 24.5415 11.1138C24.5426 11.1147 24.5433 11.1152 24.5434 11.1153C24.5434 11.1153 24.5433 11.1152 24.5431 11.1151C24.543 11.115 24.5428 11.1149 24.5427 11.1147C24.5426 11.1146 24.5424 11.1145 24.5424 11.1145C24.5422 11.1143 24.542 11.1142 25.1667 10.3333C25.7914 9.55246 25.7912 9.55231 25.791 9.55215C25.7909 9.55208 25.7907 9.55191 25.7906 9.55178C25.7902 9.55153 25.7899 9.55125 25.7895 9.55094C25.7887 9.55031 25.7878 9.54958 25.7867 9.54873C25.7846 9.54705 25.7819 9.54492 25.7787 9.54236C25.7722 9.53725 25.7634 9.53043 25.7526 9.52202C25.7309 9.5052 25.7005 9.48198 25.662 9.45328C25.5852 9.39592 25.4758 9.3164 25.3384 9.22215C25.0643 9.03421 24.6742 8.78456 24.205 8.53431C23.2894 8.04599 21.9707 7.5 20.5834 7.5V9.5ZM25.1667 23.5C25.7914 22.7191 25.7912 22.719 25.791 22.7188C25.7909 22.7187 25.7907 22.7186 25.7906 22.7185C25.7902 22.7182 25.7899 22.7179 25.7895 22.7176C25.7887 22.717 25.7878 22.7162 25.7867 22.7154C25.7846 22.7137 25.7819 22.7116 25.7787 22.709C25.7722 22.7039 25.7634 22.6971 25.7526 22.6887C25.7309 22.6719 25.7005 22.6486 25.662 22.6199C25.5852 22.5626 25.4758 22.4831 25.3384 22.3888C25.0643 22.2009 24.6742 21.9512 24.205 21.701C23.2894 21.2127 21.9707 20.6667 20.5834 20.6667V22.6667C21.4877 22.6667 22.4607 23.0373 23.2638 23.4657C23.654 23.6738 23.9801 23.8825 24.2073 24.0383C24.3205 24.1159 24.408 24.1796 24.4655 24.2225C24.4942 24.2439 24.5153 24.2601 24.5282 24.2701C24.5347 24.2751 24.5391 24.2786 24.5415 24.2805C24.5426 24.2814 24.5433 24.2819 24.5434 24.2819C24.5434 24.282 24.5433 24.2819 24.5431 24.2817C24.543 24.2816 24.5428 24.2815 24.5427 24.2814C24.5426 24.2813 24.5424 24.2812 24.5424 24.2811C24.5422 24.281 24.542 24.2809 25.1667 23.5ZM20.5834 20.6667C19.196 20.6667 17.8774 21.2127 16.9617 21.701C16.4925 21.9512 16.1025 22.2009 15.8284 22.3888C15.6909 22.4831 15.5815 22.5626 15.5047 22.6199C15.4663 22.6486 15.4359 22.6719 15.4142 22.6887C15.4033 22.6971 15.3946 22.7039 15.3881 22.709C15.3848 22.7116 15.3822 22.7137 15.38 22.7154C15.379 22.7162 15.378 22.717 15.3773 22.7176C15.3769 22.7179 15.3765 22.7182 15.3762 22.7185C15.376 22.7186 15.3758 22.7187 15.3757 22.7188C15.3755 22.719 15.3753 22.7191 16 23.5C16.6247 24.2809 16.6246 24.281 16.6244 24.2811C16.6243 24.2812 16.6242 24.2813 16.6241 24.2814C16.6239 24.2815 16.6238 24.2816 16.6237 24.2817C16.6234 24.2819 16.6233 24.282 16.6234 24.2819C16.6235 24.2819 16.6241 24.2814 16.6253 24.2805C16.6276 24.2786 16.632 24.2751 16.6385 24.2701C16.6515 24.2601 16.6726 24.2439 16.7013 24.2225C16.7587 24.1796 16.8463 24.1159 16.9594 24.0383C17.1867 23.8825 17.5128 23.6738 17.9029 23.4657C18.7061 23.0373 19.6791 22.6667 20.5834 22.6667V20.6667Z" fill="#FAFAFA"/>
<defs>
<linearGradient id="paint0_linear_878_55391" x1="-1.07288e-08" y1="9.76" x2="32.7366" y2="12.6679" gradientUnits="userSpaceOnUse">
<stop stop-color="#66FFDD"/>
<stop offset="1" stop-color="#009999"/>
</linearGradient>
</defs>
</svg>
