<svg width="32" height="32" viewBox="0 0 32 32" fill="none" xmlns="http://www.w3.org/2000/svg">
<path d="M0 10C0 4.47715 4.47715 0 10 0H22C27.5228 0 32 4.47715 32 10V22C32 27.5228 27.5228 32 22 32H10C4.47715 32 0 27.5228 0 22V10Z" fill="url(#paint0_linear_878_55400)"/>
<path d="M17.6464 8.9395L17.6464 8.93955L21.0604 12.3536L21.0605 12.3536C21.3418 12.6348 21.4999 13.0162 21.5 13.414C21.5 13.414 21.5 13.4141 21.5 13.4141V22C21.5 22.3978 21.342 22.7794 21.0607 23.0607C20.7794 23.342 20.3978 23.5 20 23.5H12C11.6022 23.5 11.2206 23.342 10.9393 23.0607C10.658 22.7794 10.5 22.3978 10.5 22V10C10.5 9.60218 10.658 9.22064 10.9393 8.93934C11.2206 8.65804 11.6022 8.5 12 8.5H16.5859C16.5859 8.5 16.586 8.5 16.586 8.5C16.9838 8.50011 17.3652 8.6582 17.6464 8.9395ZM11.9393 14.9393C11.658 15.2206 11.5 15.6022 11.5 16C11.5 16.3978 11.658 16.7794 11.9393 17.0607C12.2206 17.342 12.6022 17.5 13 17.5H19C19.3978 17.5 19.7794 17.342 20.0607 17.0607C20.342 16.7794 20.5 16.3978 20.5 16C20.5 15.6022 20.342 15.2206 20.0607 14.9393C19.7794 14.658 19.3978 14.5 19 14.5H13C12.6022 14.5 12.2206 14.658 11.9393 14.9393ZM13 18.5C12.6022 18.5 12.2206 18.658 11.9393 18.9393C11.658 19.2206 11.5 19.6022 11.5 20C11.5 20.3978 11.658 20.7794 11.9393 21.0607C12.2206 21.342 12.6022 21.5 13 21.5H19C19.3978 21.5 19.7794 21.342 20.0607 21.0607C20.342 20.7794 20.5 20.3978 20.5 20C20.5 19.6022 20.342 19.2206 20.0607 18.9393C19.7794 18.658 19.3978 18.5 19 18.5H13Z" fill="#FDFDFD" stroke="#FAFAFA"/>
<defs>
<linearGradient id="paint0_linear_878_55400" x1="-1.07288e-08" y1="9.76" x2="32.7366" y2="12.6679" gradientUnits="userSpaceOnUse">
<stop stop-color="#66FFDD"/>
<stop offset="1" stop-color="#009999"/>
</linearGradient>
</defs>
</svg>
