<svg width="32" height="32" viewBox="0 0 32 32" fill="none" xmlns="http://www.w3.org/2000/svg">
<path d="M0 10C0 4.47715 4.47715 0 10 0H22C27.5228 0 32 4.47715 32 10V22C32 27.5228 27.5228 32 22 32H10C4.47715 32 0 27.5228 0 22V10Z" fill="url(#paint0_linear_878_55409)"/>
<mask id="path-2-inside-1_878_55409" fill="white">
<path fill-rule="evenodd" clip-rule="evenodd" d="M15.4048 5.35845C15.5861 5.2549 15.7913 5.20044 16 5.20044C16.2088 5.20044 16.414 5.2549 16.5952 5.35845L18.6952 6.55845C18.836 6.63451 18.9601 6.73795 19.0603 6.86267C19.1604 6.9874 19.2347 7.13089 19.2786 7.28472C19.3225 7.43855 19.3352 7.59961 19.316 7.75843C19.2967 7.91724 19.2459 8.07061 19.1666 8.20951C19.0872 8.34841 18.9809 8.47003 18.8538 8.56723C18.7267 8.66444 18.5815 8.73525 18.4267 8.77551C18.2719 8.81578 18.1106 8.82468 17.9522 8.80169C17.7939 8.7787 17.6418 8.72429 17.5048 8.64165L16 7.78245L14.4952 8.64165C14.3582 8.72429 14.2061 8.7787 14.0478 8.80169C13.8895 8.82468 13.7282 8.81578 13.5734 8.77551C13.4185 8.73525 13.2733 8.66444 13.1463 8.56723C13.0192 8.47003 12.9129 8.34841 12.8335 8.20951C12.7541 8.07061 12.7033 7.91724 12.6841 7.75843C12.6648 7.59961 12.6776 7.43855 12.7215 7.28472C12.7654 7.13089 12.8396 6.9874 12.9398 6.86267C13.04 6.73795 13.1641 6.63451 13.3048 6.55845L15.4048 5.35845ZM10.7416 9.40485C10.8994 9.68112 10.941 10.0087 10.8573 10.3157C10.7736 10.6226 10.5714 10.8837 10.2952 11.0417L10.0192 11.2001L10.2952 11.3585C10.436 11.4345 10.5601 11.5379 10.6603 11.6627C10.7604 11.7874 10.8347 11.9309 10.8786 12.0847C10.9225 12.2386 10.9352 12.3996 10.916 12.5584C10.8967 12.7172 10.8459 12.8706 10.7666 13.0095C10.6872 13.1484 10.5809 13.27 10.4538 13.3672C10.3267 13.4644 10.1815 13.5352 10.0267 13.5755C9.87188 13.6158 9.71056 13.6247 9.55225 13.6017C9.39393 13.5787 9.24181 13.5243 9.10483 13.4417L8.80003 13.2677V13.6001C8.80003 13.9183 8.6736 14.2235 8.44856 14.4486C8.22351 14.6736 7.91829 14.8001 7.60003 14.8001C7.28177 14.8001 6.97655 14.6736 6.7515 14.4486C6.52646 14.2235 6.40003 13.9183 6.40003 13.6001V11.2001C6.39936 10.9845 6.457 10.7727 6.56685 10.5873C6.6767 10.4018 6.83467 10.2495 7.02403 10.1465L9.10483 8.95845C9.3811 8.80069 9.70871 8.75909 10.0156 8.84279C10.3226 8.9265 10.5837 9.12867 10.7416 9.40485ZM21.2584 9.40485C21.4163 9.12867 21.6775 8.9265 21.9844 8.84279C22.2913 8.75909 22.619 8.80069 22.8952 8.95845L24.9748 10.1465C25.1639 10.2499 25.3217 10.4023 25.4317 10.5877C25.5417 10.773 25.5998 10.9845 25.6 11.2001V13.6001C25.6 13.9183 25.4736 14.2235 25.2486 14.4486C25.0235 14.6736 24.7183 14.8001 24.4 14.8001C24.0818 14.8001 23.7765 14.6736 23.5515 14.4486C23.3265 14.2235 23.2 13.9183 23.2 13.6001V13.2677L22.8952 13.4417C22.7582 13.5243 22.6061 13.5787 22.4478 13.6017C22.2895 13.6247 22.1282 13.6158 21.9734 13.5755C21.8185 13.5352 21.6733 13.4644 21.5463 13.3672C21.4192 13.27 21.3129 13.1484 21.2335 13.0095C21.1541 12.8706 21.1033 12.7172 21.0841 12.5584C21.0648 12.3996 21.0776 12.2386 21.1215 12.0847C21.1654 11.9309 21.2396 11.7874 21.3398 11.6627C21.44 11.5379 21.5641 11.4345 21.7048 11.3585L21.9808 11.2001L21.7048 11.0417C21.4286 10.8837 21.2265 10.6226 21.1428 10.3157C21.0591 10.0087 21.1007 9.68112 21.2584 9.40485ZM12.8584 14.2049C13.0164 13.9287 13.2775 13.7265 13.5844 13.6428C13.8913 13.5591 14.219 13.6007 14.4952 13.7585L16 14.6177L17.5048 13.7585C17.6418 13.6758 17.7939 13.6214 17.9522 13.5984C18.1106 13.5754 18.2719 13.5843 18.4267 13.6246C18.5815 13.6649 18.7267 13.7357 18.8538 13.8329C18.9809 13.9301 19.0872 14.0517 19.1666 14.1906C19.2459 14.3295 19.2967 14.4829 19.316 14.6417C19.3352 14.8005 19.3225 14.9616 19.2786 15.1154C19.2347 15.2692 19.1604 15.4127 19.0603 15.5374C18.9601 15.6622 18.836 15.7656 18.6952 15.8417L17.2 16.6961V18.4001C17.2 18.7183 17.0736 19.0235 16.8486 19.2486C16.6235 19.4736 16.3183 19.6001 16 19.6001C15.6818 19.6001 15.3765 19.4736 15.1515 19.2486C14.9265 19.0235 14.8 18.7183 14.8 18.4001V16.6961L13.3048 15.8417C13.0286 15.6837 12.8265 15.4226 12.7428 15.1157C12.6591 14.8087 12.7007 14.4811 12.8584 14.2049ZM7.60003 17.2001C7.91829 17.2001 8.22351 17.3265 8.44856 17.5515C8.6736 17.7766 8.80003 18.0818 8.80003 18.4001V20.1041L10.2952 20.9585C10.436 21.0345 10.5601 21.1379 10.6603 21.2627C10.7604 21.3874 10.8347 21.5309 10.8786 21.6847C10.9225 21.8386 10.9352 21.9996 10.916 22.1584C10.8967 22.3172 10.8459 22.4706 10.7666 22.6095C10.6872 22.7484 10.5809 22.87 10.4538 22.9672C10.3267 23.0644 10.1815 23.1353 10.0267 23.1755C9.87188 23.2158 9.71056 23.2247 9.55225 23.2017C9.39393 23.1787 9.24181 23.1243 9.10483 23.0417L7.00483 21.8417C6.82117 21.7367 6.66849 21.5851 6.56228 21.4022C6.45607 21.2193 6.4001 21.0116 6.40003 20.8001V18.4001C6.40003 18.0818 6.52646 17.7766 6.7515 17.5515C6.97655 17.3265 7.28177 17.2001 7.60003 17.2001ZM24.4 17.2001C24.7183 17.2001 25.0235 17.3265 25.2486 17.5515C25.4736 17.7766 25.6 18.0818 25.6 18.4001V20.8001C25.6 21.0116 25.544 21.2193 25.4378 21.4022C25.3316 21.5851 25.1789 21.7367 24.9952 21.8417L22.8952 23.0417C22.7582 23.1243 22.6061 23.1787 22.4478 23.2017C22.2895 23.2247 22.1282 23.2158 21.9734 23.1755C21.8185 23.1353 21.6733 23.0644 21.5463 22.9672C21.4192 22.87 21.3129 22.7484 21.2335 22.6095C21.1541 22.4706 21.1033 22.3172 21.0841 22.1584C21.0648 21.9996 21.0776 21.8386 21.1215 21.6847C21.1654 21.5309 21.2396 21.3874 21.3398 21.2627C21.44 21.1379 21.5641 21.0345 21.7048 20.9585L23.2 20.1041V18.4001C23.2 18.0818 23.3265 17.7766 23.5515 17.5515C23.7765 17.3265 24.0818 17.2001 24.4 17.2001ZM12.8584 23.8049C13.0164 23.5287 13.2775 23.3265 13.5844 23.2428C13.8913 23.1591 14.219 23.2007 14.4952 23.3585L14.8 23.5325V23.2001C14.8 22.8818 14.9265 22.5766 15.1515 22.3515C15.3765 22.1265 15.6818 22.0001 16 22.0001C16.3183 22.0001 16.6235 22.1265 16.8486 22.3515C17.0736 22.5766 17.2 22.8818 17.2 23.2001V23.5325L17.5048 23.3585C17.6418 23.2758 17.7939 23.2214 17.9522 23.1984C18.1106 23.1754 18.2719 23.1843 18.4267 23.2246C18.5815 23.2649 18.7267 23.3357 18.8538 23.4329C18.9809 23.5301 19.0872 23.6517 19.1666 23.7906C19.2459 23.9295 19.2967 24.0829 19.316 24.2417C19.3352 24.4005 19.3225 24.5616 19.2786 24.7154C19.2347 24.8692 19.1604 25.0127 19.0603 25.1374C18.9601 25.2622 18.836 25.3656 18.6952 25.4417L16.6132 26.6321C16.4279 26.743 16.216 26.8015 16 26.8015C15.7841 26.8015 15.5721 26.743 15.3868 26.6321L13.3048 25.4417C13.0286 25.2837 12.8265 25.0226 12.7428 24.7157C12.6591 24.4087 12.7007 24.0811 12.8584 23.8049Z"/>
</mask>
<path fill-rule="evenodd" clip-rule="evenodd" d="M15.4048 5.35845C15.5861 5.2549 15.7913 5.20044 16 5.20044C16.2088 5.20044 16.414 5.2549 16.5952 5.35845L18.6952 6.55845C18.836 6.63451 18.9601 6.73795 19.0603 6.86267C19.1604 6.9874 19.2347 7.13089 19.2786 7.28472C19.3225 7.43855 19.3352 7.59961 19.316 7.75843C19.2967 7.91724 19.2459 8.07061 19.1666 8.20951C19.0872 8.34841 18.9809 8.47003 18.8538 8.56723C18.7267 8.66444 18.5815 8.73525 18.4267 8.77551C18.2719 8.81578 18.1106 8.82468 17.9522 8.80169C17.7939 8.7787 17.6418 8.72429 17.5048 8.64165L16 7.78245L14.4952 8.64165C14.3582 8.72429 14.2061 8.7787 14.0478 8.80169C13.8895 8.82468 13.7282 8.81578 13.5734 8.77551C13.4185 8.73525 13.2733 8.66444 13.1463 8.56723C13.0192 8.47003 12.9129 8.34841 12.8335 8.20951C12.7541 8.07061 12.7033 7.91724 12.6841 7.75843C12.6648 7.59961 12.6776 7.43855 12.7215 7.28472C12.7654 7.13089 12.8396 6.9874 12.9398 6.86267C13.04 6.73795 13.1641 6.63451 13.3048 6.55845L15.4048 5.35845ZM10.7416 9.40485C10.8994 9.68112 10.941 10.0087 10.8573 10.3157C10.7736 10.6226 10.5714 10.8837 10.2952 11.0417L10.0192 11.2001L10.2952 11.3585C10.436 11.4345 10.5601 11.5379 10.6603 11.6627C10.7604 11.7874 10.8347 11.9309 10.8786 12.0847C10.9225 12.2386 10.9352 12.3996 10.916 12.5584C10.8967 12.7172 10.8459 12.8706 10.7666 13.0095C10.6872 13.1484 10.5809 13.27 10.4538 13.3672C10.3267 13.4644 10.1815 13.5352 10.0267 13.5755C9.87188 13.6158 9.71056 13.6247 9.55225 13.6017C9.39393 13.5787 9.24181 13.5243 9.10483 13.4417L8.80003 13.2677V13.6001C8.80003 13.9183 8.6736 14.2235 8.44856 14.4486C8.22351 14.6736 7.91829 14.8001 7.60003 14.8001C7.28177 14.8001 6.97655 14.6736 6.7515 14.4486C6.52646 14.2235 6.40003 13.9183 6.40003 13.6001V11.2001C6.39936 10.9845 6.457 10.7727 6.56685 10.5873C6.6767 10.4018 6.83467 10.2495 7.02403 10.1465L9.10483 8.95845C9.3811 8.80069 9.70871 8.75909 10.0156 8.84279C10.3226 8.9265 10.5837 9.12867 10.7416 9.40485ZM21.2584 9.40485C21.4163 9.12867 21.6775 8.9265 21.9844 8.84279C22.2913 8.75909 22.619 8.80069 22.8952 8.95845L24.9748 10.1465C25.1639 10.2499 25.3217 10.4023 25.4317 10.5877C25.5417 10.773 25.5998 10.9845 25.6 11.2001V13.6001C25.6 13.9183 25.4736 14.2235 25.2486 14.4486C25.0235 14.6736 24.7183 14.8001 24.4 14.8001C24.0818 14.8001 23.7765 14.6736 23.5515 14.4486C23.3265 14.2235 23.2 13.9183 23.2 13.6001V13.2677L22.8952 13.4417C22.7582 13.5243 22.6061 13.5787 22.4478 13.6017C22.2895 13.6247 22.1282 13.6158 21.9734 13.5755C21.8185 13.5352 21.6733 13.4644 21.5463 13.3672C21.4192 13.27 21.3129 13.1484 21.2335 13.0095C21.1541 12.8706 21.1033 12.7172 21.0841 12.5584C21.0648 12.3996 21.0776 12.2386 21.1215 12.0847C21.1654 11.9309 21.2396 11.7874 21.3398 11.6627C21.44 11.5379 21.5641 11.4345 21.7048 11.3585L21.9808 11.2001L21.7048 11.0417C21.4286 10.8837 21.2265 10.6226 21.1428 10.3157C21.0591 10.0087 21.1007 9.68112 21.2584 9.40485ZM12.8584 14.2049C13.0164 13.9287 13.2775 13.7265 13.5844 13.6428C13.8913 13.5591 14.219 13.6007 14.4952 13.7585L16 14.6177L17.5048 13.7585C17.6418 13.6758 17.7939 13.6214 17.9522 13.5984C18.1106 13.5754 18.2719 13.5843 18.4267 13.6246C18.5815 13.6649 18.7267 13.7357 18.8538 13.8329C18.9809 13.9301 19.0872 14.0517 19.1666 14.1906C19.2459 14.3295 19.2967 14.4829 19.316 14.6417C19.3352 14.8005 19.3225 14.9616 19.2786 15.1154C19.2347 15.2692 19.1604 15.4127 19.0603 15.5374C18.9601 15.6622 18.836 15.7656 18.6952 15.8417L17.2 16.6961V18.4001C17.2 18.7183 17.0736 19.0235 16.8486 19.2486C16.6235 19.4736 16.3183 19.6001 16 19.6001C15.6818 19.6001 15.3765 19.4736 15.1515 19.2486C14.9265 19.0235 14.8 18.7183 14.8 18.4001V16.6961L13.3048 15.8417C13.0286 15.6837 12.8265 15.4226 12.7428 15.1157C12.6591 14.8087 12.7007 14.4811 12.8584 14.2049ZM7.60003 17.2001C7.91829 17.2001 8.22351 17.3265 8.44856 17.5515C8.6736 17.7766 8.80003 18.0818 8.80003 18.4001V20.1041L10.2952 20.9585C10.436 21.0345 10.5601 21.1379 10.6603 21.2627C10.7604 21.3874 10.8347 21.5309 10.8786 21.6847C10.9225 21.8386 10.9352 21.9996 10.916 22.1584C10.8967 22.3172 10.8459 22.4706 10.7666 22.6095C10.6872 22.7484 10.5809 22.87 10.4538 22.9672C10.3267 23.0644 10.1815 23.1353 10.0267 23.1755C9.87188 23.2158 9.71056 23.2247 9.55225 23.2017C9.39393 23.1787 9.24181 23.1243 9.10483 23.0417L7.00483 21.8417C6.82117 21.7367 6.66849 21.5851 6.56228 21.4022C6.45607 21.2193 6.4001 21.0116 6.40003 20.8001V18.4001C6.40003 18.0818 6.52646 17.7766 6.7515 17.5515C6.97655 17.3265 7.28177 17.2001 7.60003 17.2001ZM24.4 17.2001C24.7183 17.2001 25.0235 17.3265 25.2486 17.5515C25.4736 17.7766 25.6 18.0818 25.6 18.4001V20.8001C25.6 21.0116 25.544 21.2193 25.4378 21.4022C25.3316 21.5851 25.1789 21.7367 24.9952 21.8417L22.8952 23.0417C22.7582 23.1243 22.6061 23.1787 22.4478 23.2017C22.2895 23.2247 22.1282 23.2158 21.9734 23.1755C21.8185 23.1353 21.6733 23.0644 21.5463 22.9672C21.4192 22.87 21.3129 22.7484 21.2335 22.6095C21.1541 22.4706 21.1033 22.3172 21.0841 22.1584C21.0648 21.9996 21.0776 21.8386 21.1215 21.6847C21.1654 21.5309 21.2396 21.3874 21.3398 21.2627C21.44 21.1379 21.5641 21.0345 21.7048 20.9585L23.2 20.1041V18.4001C23.2 18.0818 23.3265 17.7766 23.5515 17.5515C23.7765 17.3265 24.0818 17.2001 24.4 17.2001ZM12.8584 23.8049C13.0164 23.5287 13.2775 23.3265 13.5844 23.2428C13.8913 23.1591 14.219 23.2007 14.4952 23.3585L14.8 23.5325V23.2001C14.8 22.8818 14.9265 22.5766 15.1515 22.3515C15.3765 22.1265 15.6818 22.0001 16 22.0001C16.3183 22.0001 16.6235 22.1265 16.8486 22.3515C17.0736 22.5766 17.2 22.8818 17.2 23.2001V23.5325L17.5048 23.3585C17.6418 23.2758 17.7939 23.2214 17.9522 23.1984C18.1106 23.1754 18.2719 23.1843 18.4267 23.2246C18.5815 23.2649 18.7267 23.3357 18.8538 23.4329C18.9809 23.5301 19.0872 23.6517 19.1666 23.7906C19.2459 23.9295 19.2967 24.0829 19.316 24.2417C19.3352 24.4005 19.3225 24.5616 19.2786 24.7154C19.2347 24.8692 19.1604 25.0127 19.0603 25.1374C18.9601 25.2622 18.836 25.3656 18.6952 25.4417L16.6132 26.6321C16.4279 26.743 16.216 26.8015 16 26.8015C15.7841 26.8015 15.5721 26.743 15.3868 26.6321L13.3048 25.4417C13.0286 25.2837 12.8265 25.0226 12.7428 24.7157C12.6591 24.4087 12.7007 24.0811 12.8584 23.8049Z" fill="#FDFDFD" stroke="#FDFDFD" stroke-width="2" mask="url(#path-2-inside-1_878_55409)"/>
<defs>
<linearGradient id="paint0_linear_878_55409" x1="-1.07288e-08" y1="9.76" x2="32.7366" y2="12.6679" gradientUnits="userSpaceOnUse">
<stop stop-color="#66FFDD"/>
<stop offset="1" stop-color="#009999"/>
</linearGradient>
</defs>
</svg>
