<svg width="32" height="32" viewBox="0 0 32 32" fill="none" xmlns="http://www.w3.org/2000/svg">
<path d="M0 10C0 4.47715 4.47715 0 10 0H22C27.5228 0 32 4.47715 32 10V22C32 27.5228 27.5228 32 22 32H10C4.47715 32 0 27.5228 0 22V10Z" fill="url(#paint0_linear_1094_107497)"/>
<path d="M8.64606 16.353L8.64655 16.3534L15.6465 23.3534C15.6465 23.3534 15.6465 23.3534 15.6466 23.3534C15.7403 23.4471 15.8674 23.4998 16 23.4998C16.1326 23.4998 16.2597 23.4471 16.3534 23.3534L8.64606 16.353ZM8.64606 16.353C8.5997 16.3067 8.56293 16.2518 8.53787 16.1913C8.5128 16.1308 8.49993 16.066 8.5 16.0005V16V11C8.5 10.337 8.76339 9.70107 9.23223 9.23223C9.70107 8.76339 10.337 8.5 11 8.5H16C16.1285 8.5 16.2558 8.54887 16.3534 8.64655L23.3534 15.6465C23.3534 15.6465 23.3534 15.6465 23.3534 15.6466C23.4471 15.7403 23.4998 15.8674 23.4998 16C23.4998 16.1326 23.4471 16.2597 23.3534 16.3534C23.3534 16.3535 23.3534 16.3535 23.3534 16.3535L16.3535 23.3534L8.64606 16.353ZM11 12.5C11.3978 12.5 11.7794 12.342 12.0607 12.0607C12.342 11.7794 12.5 11.3978 12.5 11C12.5 10.6022 12.342 10.2206 12.0607 9.93934C11.7794 9.65804 11.3978 9.5 11 9.5C10.6022 9.5 10.2206 9.65804 9.93934 9.93934L10.2929 10.2929L9.93934 9.93934C9.65804 10.2206 9.5 10.6022 9.5 11C9.5 11.3978 9.65804 11.7794 9.93934 12.0607C10.2206 12.342 10.6022 12.5 11 12.5Z" fill="#FDFDFD" stroke="#FAFAFA"/>
<defs>
<linearGradient id="paint0_linear_1094_107497" x1="-1.07288e-08" y1="9.76" x2="32.7366" y2="12.6679" gradientUnits="userSpaceOnUse">
<stop stop-color="#66FFDD"/>
<stop offset="1" stop-color="#009999"/>
</linearGradient>
</defs>
</svg>
