<svg width="24" height="24" viewBox="0 0 24 24" fill="none" xmlns="http://www.w3.org/2000/svg">
<path d="M1 4.5C1 4.22386 1.21761 4 1.49375 4C4.27253 4 17.9967 4 22.5035 4C22.7796 4 23 4.22386 23 4.5V15.5C23 15.7761 22.7796 16 22.5035 16C17.9967 16 4.27253 16 1.49375 16C1.21761 16 1 15.7761 1 15.5V4.5Z" stroke="black" stroke-opacity="0.6" stroke-width="2"/>
<path d="M12 16V20" stroke="black" stroke-opacity="0.6" stroke-width="2" stroke-linecap="round"/>
<path d="M15.6189 21.9245C16.1295 22.135 16.714 21.8917 16.9245 21.3811C17.135 20.8705 16.8917 20.286 16.3811 20.0755L15.6189 21.9245ZM7.61887 20.0755C7.10827 20.286 6.86499 20.8705 7.07548 21.3811C7.28597 21.8917 7.87053 22.135 8.38113 21.9245L7.61887 20.0755ZM16 21C16.3811 20.0755 16.381 20.0754 16.3809 20.0754C16.3808 20.0754 16.3807 20.0753 16.3806 20.0753C16.3804 20.0752 16.3801 20.0751 16.3799 20.075C16.3793 20.0747 16.3786 20.0744 16.3777 20.0741C16.376 20.0734 16.3736 20.0724 16.3707 20.0712C16.3649 20.0689 16.3569 20.0656 16.3466 20.0614C16.326 20.0531 16.2966 20.0414 16.2593 20.0266C16.1845 19.9972 16.0776 19.9558 15.945 19.9065C15.6804 19.8081 15.3104 19.6768 14.8875 19.5452C14.0718 19.2913 12.9487 19 12 19V21C12.6256 21 13.5025 21.2087 14.2932 21.4548C14.6735 21.5732 15.0083 21.6919 15.2477 21.781C15.3671 21.8254 15.462 21.8622 15.5261 21.8874C15.5582 21.9 15.5824 21.9098 15.5982 21.9161C15.606 21.9193 15.6118 21.9216 15.6152 21.923C15.617 21.9238 15.6182 21.9242 15.6188 21.9245C15.6191 21.9246 15.6192 21.9247 15.6193 21.9247C15.6193 21.9247 15.6192 21.9247 15.6192 21.9246C15.6191 21.9246 15.6191 21.9246 15.6191 21.9246C15.619 21.9246 15.6189 21.9245 16 21ZM12 19C11.0513 19 9.9282 19.2913 9.11247 19.5452C8.68957 19.6768 8.31955 19.8081 8.05496 19.9065C7.92236 19.9558 7.81546 19.9972 7.74075 20.0266C7.70337 20.0414 7.674 20.0531 7.65343 20.0614C7.64314 20.0656 7.63505 20.0689 7.62926 20.0712C7.62636 20.0724 7.62404 20.0734 7.62231 20.0741C7.62144 20.0744 7.62072 20.0747 7.62014 20.075C7.61986 20.0751 7.61961 20.0752 7.6194 20.0753C7.61929 20.0753 7.61916 20.0754 7.61911 20.0754C7.61898 20.0754 7.61887 20.0755 8 21C8.38113 21.9245 8.38103 21.9246 8.38095 21.9246C8.38093 21.9246 8.38086 21.9246 8.38083 21.9246C8.38076 21.9247 8.38073 21.9247 8.38074 21.9247C8.38076 21.9247 8.38092 21.9246 8.38122 21.9245C8.38183 21.9242 8.38301 21.9238 8.38475 21.923C8.38824 21.9216 8.39396 21.9193 8.40183 21.9161C8.41756 21.9098 8.44184 21.9 8.47386 21.8874C8.53796 21.8622 8.63287 21.8254 8.75228 21.781C8.99171 21.6919 9.32652 21.5732 9.70684 21.4548C10.4975 21.2087 11.3744 21 12 21V19Z" fill="black" fill-opacity="0.6"/>
</svg>
